<svg width="46" height="46" viewBox="0 0 46 46" fill="none" xmlns="http://www.w3.org/2000/svg">
<circle cx="23" cy="23" r="23" fill="#DDDDDD"/>
<path d="M16.4132 32V14.3H22.1372C23.3212 14.3 24.3972 14.516 25.3652 14.948C26.3412 15.372 27.1772 15.976 27.8732 16.76C28.5772 17.536 29.1172 18.464 29.4932 19.544C29.8692 20.624 30.0572 21.816 30.0572 23.12C30.0572 24.424 29.8692 25.62 29.4932 26.708C29.1172 27.796 28.5772 28.736 27.8732 29.528C27.1772 30.312 26.3412 30.92 25.3652 31.352C24.3972 31.784 23.3212 32 22.1372 32H16.4132ZM20.1572 30.896L18.4772 29.12H21.6572C22.5212 29.12 23.3012 28.88 23.9972 28.4C24.7012 27.912 25.2572 27.22 25.6652 26.324C26.0732 25.42 26.2772 24.352 26.2772 23.12C26.2772 21.88 26.0732 20.82 25.6652 19.94C25.2572 19.052 24.7012 18.372 23.9972 17.9C23.3012 17.42 22.5212 17.18 21.6572 17.18H18.4772L20.1572 15.404V30.896Z" fill="white"/>
</svg>
