<svg width="37" height="41" viewBox="0 0 37 41" fill="none" xmlns="http://www.w3.org/2000/svg">
<path d="M25.9145 21.1856L33.18 33.2619C33.592 33.9415 34.2275 34.2256 34.9026 34.2256C35.9129 34.2256 36.9629 33.5105 36.9629 32.2958L37.0001 8.14554C37.0001 6.9308 35.9899 6.18018 34.9771 6.18018C34.3019 6.18018 33.6293 6.50221 33.2172 7.1818L25.9145 19.2226C25.7283 19.5091 25.6514 19.8643 25.6514 20.1863C25.6514 20.5439 25.7258 20.8659 25.9145 21.1856Z" fill="#2FC18C"/>
<path d="M18.3883 25.2939L25.691 37.3347C25.8797 37.6567 25.9914 38.0143 25.9914 38.334C25.9914 39.3711 25.0184 40.2638 23.9311 40.2638C23.5936 40.2638 23.256 40.1928 22.9209 40.0128L1.0127 27.901C0.300303 27.5079 0.00244141 26.8638 0.00244141 26.2577C0.00244141 25.2584 0.789305 24.2568 2.06269 24.2568L16.6309 24.3278C17.3805 24.3278 18.0532 24.6854 18.3908 25.2915" fill="#2FC18C"/>
<path d="M16.5912 15.9336H2.02302C0.749632 15.9336 0 14.9699 0 14.0038C0 13.3597 0.300352 12.718 1.01027 12.3249L22.9557 0.286516C23.2933 0.108924 23.6681 0 24.0056 0C25.0929 0 26.0287 0.8927 26.0287 1.96536C26.0287 2.28739 25.917 2.60943 25.7283 2.9291L18.3511 14.9699C17.9763 15.5784 17.3409 15.9336 16.5912 15.9336Z" fill="#2FC18C"/>
</svg>
